<?xml version="1.0" encoding="utf-8"?>
<!-- Generator: Adobe Illustrator 25.3.1, SVG Export Plug-In . SVG Version: 6.00 Build 0)  -->
<svg version="1.1" id="Layer_1" xmlns="http://www.w3.org/2000/svg" xmlns:xlink="http://www.w3.org/1999/xlink" x="0px" y="0px"
	 viewBox="0 0 605.85 301.32" style="enable-background:new 0 0 605.85 301.32;" xml:space="preserve">
<style type="text/css">
	.st0{fill:#6E6660;}
</style>
<rect x="167.8" y="268.5" class="st0" width="270.25" height="0.85"/>
<g>
	<path class="st0" d="M293.38,77.33c-10,0-15.12-5.4-15.22-16.05v-7.97l2.62-0.01c9.98,0,15.07,5.39,15.17,16.03l-0.01,7.97
		L293.38,77.33z"/>
	<path class="st0" d="M304.27,54.84v11.9c0,9.58-6.88,17.3-16.4,18.45l-0.16,0.01c-3.31,0.25-4.6,3-4.94,3.87l-0.28,0.75h3.01
		c13.03,0,23.24-10.14,23.24-23.09V54.84H304.27z"/>
	<path class="st0" d="M326.07,0.05c-1.51,0-3.11-0.05-4.8-0.05c-5.19,0-12.65,0.27-19.18,2.45c4.13,4.15,6.65,9.89,6.65,16.32v32.28
		c10.64-1.13,18.94-11.94,18.94-22.9h0.01V0.07C327.33,0.07,326.43,0.05,326.07,0.05"/>
	<path class="st0" d="M294.01,2.05c-2.42-1.23-5.13-1.95-8.02-1.99h-0.71v11.22C287.5,7.64,290.48,4.49,294.01,2.05"/>
	<path class="st0" d="M303.02,12.03h0.01c-1.11-2.9-2.91-5.43-5.24-7.4c-7.43,4.48-12.37,12.37-12.5,21.37h-0.01v4.12h0.01
		c0.09,10.9,8.37,19.83,18.98,20.94V18.81C304.27,16.41,303.83,14.12,303.02,12.03"/>
</g>
<g>
	<path class="st0" d="M127.27,193.54c-15.58,0-27.79-12.95-27.79-29.47c0-16.71,11.82-29.32,27.5-29.32
		c15.66,0,27.93,13.01,27.93,29.62C154.91,181,143.04,193.54,127.27,193.54 M127.27,123.36c-22.89,0-40.81,18.01-40.81,41.01
		c0,22.84,17.8,40.72,40.52,40.72c22.97,0,40.96-18.02,40.96-41.02C167.93,141.24,150.07,123.36,127.27,123.36"/>
	<path class="st0" d="M63.84,186.26c-2.26,0-4.42,0.67-6.45,2.02c-4.8,3.69-9.8,5.26-16.72,5.26c-15.5,0-27.64-12.95-27.64-29.47
		c0-16.44,11.82-29.33,26.91-29.33c3.73,0,7.13,0.68,10.39,2.06c1.75,0.74,3.34,1.8,4.88,2.82c0.61,0.41,1.23,0.81,1.84,1.2
		c1.47,0.91,3.07,1.39,4.8,1.39c4.08,0,7.68-2.58,9.04-3.7l0.93-0.76l-0.84-0.87c-5.99-6.31-14.94-13.54-30.91-13.54
		C17.6,123.35,0,141.36,0,164.36c0,22.84,17.6,40.73,40.06,40.73c16.11,0,25.3-7.87,31.52-14.72l0.86-0.95l-1.06-0.72
		C70.3,187.97,67.41,186.26,63.84,186.26"/>
	<path class="st0" d="M359.94,126.66c0.97,2.3,4.78,9.8,13.51,9.8h18.65v67.51h12.07v-67.51h29.31v-11.34h-74.19L359.94,126.66z"/>
	<path class="st0" d="M604.27,123.87c-2.67-0.65-10.95-1.55-17.28,7.65c-6.51,9.45-17.21,25.1-19.72,28.75
		c-2.01-3.06-9.46-14.37-17.39-25.8c-6.33-9.13-13.22-10.5-16.76-10.5c-1.19,0-2.11,0.15-2.66,0.27l-1.63,0.35l32.3,47.18v32.02
		h12.06v-32.13l32.66-47.42L604.27,123.87z"/>
	<path class="st0" d="M241.62,170.38c0,13.62-9.44,23.51-22.43,23.51c-12.93,0-20.65-8.45-20.65-22.61v-35.79
		c0-7.09-5.95-10.08-11.52-10.52l-1.19-0.09v49.23c0,19.41,11.52,31.47,30.09,31.47c15.14,0,22.37-6.5,25.73-11.74
		c0.14,3.87,1.56,6.71,4.2,8.43c2.33,1.51,5.06,1.74,6.49,1.74c0.3,0,0.56-0.01,0.81-0.02l1.06-0.05v-78.81h-12.57V170.38z"/>
	<path class="st0" d="M319.66,124.02c-15.15,0-22.37,5.99-25.72,11.24c-0.15-3.88-1.57-6.71-4.22-8.43
		c-2.32-1.51-5.05-1.74-6.47-1.74c-0.34,0-0.62,0.01-0.83,0.03l-1.04,0.07v78.79h12.57v-44.74c0-13.63,9.43-23.52,22.43-23.52
		c12.93,0,20.65,8.46,20.65,22.63v35.09c0,7.09,5.95,10.08,11.52,10.51l1.19,0.09V155.5C349.75,136.09,338.22,124.02,319.66,124.02"
		/>
	<path class="st0" d="M525.1,193.27c-0.77,0.37-4.89,2.23-8.5,2.23c-9.65,0-14.31-8.04-20.11-16.4c-0.81-1.18-1.62-2.34-2.44-3.5
		c-0.81-1.13-1.67-2.3-2.54-3.5h0.35c10.66-0.3,13.89-3.59,17.03-6.79l0.41-0.41c4.11-4.16,6.28-9.74,6.27-16.15
		c0.01-7.09-2.84-13.37-8.01-17.65c-5.16-4.29-12.38-6.55-20.89-6.55h-34.03v79.55h11.96v-68.22h21.45c5.54,0,10.06,1.25,13.06,3.6
		c2.89,2.28,4.38,5.5,4.39,9.59c-0.01,4.22-1.62,7.61-4.76,10.09c-3.14,2.46-7.57,3.76-12.81,3.76h-10.32c0,0-2.04,0.03-2.13,0.03
		c-0.19,0-0.49,0.03-0.49,0.03c-0.91,0.13-1.59,0.7-1.81,1.51c-0.21,0.78,0.05,1.63,0.63,2.08c5.22,4.09,9.36,9.86,13.36,15.44
		c1.07,1.48,2.1,3.04,3.16,4.6c5.99,8.87,12.16,18.65,23.84,18.65h0.25C519.27,205.19,524.81,199.91,525.1,193.27"/>
</g>
<g>
	<path class="st0" d="M219.03,294.67c-0.54-0.29-1.26-0.36-2.4-0.36h-2.77v4.73h3.31c0.63,0,1.21-0.07,1.71-0.27
		c0.81-0.34,1.37-0.99,1.37-2.12C220.24,295.82,219.86,295.08,219.03,294.67 M218.06,288.23c-0.45-0.29-1.01-0.43-1.6-0.43h-2.61
		v4.48h2.38c0.59,0,1.22-0.05,1.71-0.29c0.61-0.31,1.06-0.95,1.06-1.94C219.01,289.18,218.62,288.59,218.06,288.23 M217.7,301.09
		h-6.09c-0.13,0-0.27-0.11-0.27-0.27v-14.78c0-0.15,0.14-0.29,0.27-0.29h4.84c1.19,0,2.47,0.16,3.53,0.91
		c0.92,0.63,1.57,1.62,1.57,2.99c0,1.65-0.76,2.77-2,3.34v0.09c2.18,0.43,3.26,1.87,3.26,3.9
		C222.81,299.83,220.27,301.09,217.7,301.09"/>
	<path class="st0" d="M238.41,286.05c0.11-0.18,0.23-0.29,0.45-0.29h2.27c0.29,0,0.34,0.23,0.21,0.45l-5.78,8.33v6.28
		c0,0.16-0.13,0.27-0.29,0.27h-1.96c-0.15,0-0.27-0.11-0.27-0.27v-6.28l-5.75-8.33c-0.16-0.23-0.11-0.45,0.2-0.45h2.22
		c0.25,0,0.36,0.09,0.47,0.29l4.12,5.99L238.41,286.05z"/>
	<path class="st0" d="M258.36,287.89v5.43H262c0.97,0,1.73-0.09,2.36-0.47c0.65-0.38,1.1-1.11,1.1-2.23c0-1.11-0.41-1.82-1.06-2.23
		c-0.61-0.4-1.37-0.49-2.2-0.49H258.36z M264.45,295.21l3.76,5.41c0.13,0.22,0.18,0.47-0.14,0.47h-2.18c-0.25,0-0.41-0.04-0.54-0.29
		l-3.62-5.36h-3.37v5.38c0,0.16-0.13,0.27-0.27,0.27h-1.99c-0.13,0-0.27-0.11-0.27-0.27v-14.77c0-0.16,0.13-0.29,0.27-0.29h6.32
		c1.49,0,2.79,0.23,3.8,0.95c1.12,0.81,1.8,2.16,1.8,3.9c0,1.55-0.61,2.82-1.76,3.69C265.69,294.76,265.1,295.03,264.45,295.21"/>
	<path class="st0" d="M280.71,288.75l-2.58,6.87h5.15L280.71,288.75z M276.33,300.8c-0.07,0.2-0.21,0.29-0.45,0.29h-1.93
		c-0.18,0-0.25-0.09-0.25-0.21c0-0.07,0.02-0.13,0.05-0.22l5.53-14.69c0.07-0.2,0.21-0.29,0.43-0.29h2.07
		c0.25,0,0.36,0.09,0.45,0.29l5.47,14.69c0.02,0.07,0.07,0.15,0.07,0.22c0,0.11-0.07,0.21-0.27,0.21h-1.98
		c-0.25,0-0.38-0.09-0.45-0.29l-1.15-3.16h-6.41L276.33,300.8z"/>
	<path class="st0" d="M296.18,298.98h2.86c1.33,0,2.56-0.2,3.55-0.72c1.73-0.88,2.56-2.62,2.56-4.82c0-1.73-0.47-3-1.28-3.88
		c-1.06-1.15-2.68-1.67-4.68-1.67h-3.01V298.98z M304.25,299.99c-1.53,0.85-3.28,1.11-5.02,1.11h-5.31c-0.13,0-0.27-0.11-0.27-0.27
		v-14.77c0-0.16,0.13-0.29,0.27-0.29h5.62c2.45,0,4.66,0.56,6.34,2.38c1.11,1.2,1.82,2.93,1.82,5.3
		C307.72,296.27,306.61,298.66,304.25,299.99"/>
	<path class="st0" d="M316.94,285.76c0.13,0,0.27,0.13,0.27,0.29v14.77c0,0.16-0.13,0.27-0.27,0.27h-1.98
		c-0.14,0-0.27-0.11-0.27-0.27v-14.77c0-0.16,0.13-0.29,0.27-0.29H316.94z"/>
	<path class="st0" d="M324.15,299.88c-0.16-0.09-0.2-0.23-0.11-0.38l0.79-1.67c0.07-0.13,0.18-0.2,0.36-0.09
		c0.99,0.61,2.34,1.42,4.25,1.42c0.95,0,1.67-0.23,2.14-0.59c0.59-0.43,0.83-1.06,0.83-1.74c0-1.03-0.83-1.62-1.93-2.04
		c-1.29-0.52-2.79-0.77-4.23-1.58c-1.24-0.7-2.11-1.67-2.11-3.4c0-1.27,0.49-2.34,1.46-3.09c0.95-0.74,2.34-1.17,4.18-1.17
		c2.09,0,3.66,0.57,4.68,1.13c0.16,0.09,0.18,0.22,0.11,0.38l-0.79,1.65c-0.09,0.16-0.23,0.2-0.38,0.11
		c-1.08-0.63-2.41-1.09-3.76-1.09c-1.01,0-1.76,0.23-2.2,0.61c-0.43,0.34-0.65,0.79-0.65,1.35c0,0.99,0.83,1.51,2.09,1.93
		c1.44,0.52,3.06,0.77,4.38,1.63c1.04,0.65,1.89,1.71,1.89,3.38c0,1.51-0.63,2.68-1.67,3.49c-0.99,0.79-2.4,1.19-4.02,1.19
		C327.03,301.31,325.28,300.58,324.15,299.88"/>
	<path class="st0" d="M341.13,299.88c-0.16-0.09-0.2-0.23-0.11-0.38l0.79-1.67c0.07-0.13,0.18-0.2,0.36-0.09
		c0.99,0.61,2.34,1.42,4.25,1.42c0.95,0,1.67-0.23,2.14-0.59c0.59-0.43,0.83-1.06,0.83-1.74c0-1.03-0.83-1.62-1.93-2.04
		c-1.29-0.52-2.79-0.77-4.23-1.58c-1.24-0.7-2.11-1.67-2.11-3.4c0-1.27,0.49-2.34,1.46-3.09c0.95-0.74,2.34-1.17,4.18-1.17
		c2.09,0,3.66,0.57,4.68,1.13c0.16,0.09,0.18,0.22,0.11,0.38l-0.79,1.65c-0.09,0.16-0.23,0.2-0.38,0.11
		c-1.08-0.63-2.41-1.09-3.76-1.09c-1.01,0-1.76,0.23-2.2,0.61c-0.43,0.34-0.65,0.79-0.65,1.35c0,0.99,0.83,1.51,2.09,1.93
		c1.44,0.52,3.06,0.77,4.38,1.63c1.04,0.65,1.89,1.71,1.89,3.38c0,1.51-0.63,2.68-1.67,3.49c-0.99,0.79-2.4,1.19-4.02,1.19
		C344.01,301.31,342.26,300.58,341.13,299.88"/>
	<path class="st0" d="M366.07,287.92c-3.08,0-5.44,2.46-5.44,5.54c0,3.08,2.36,5.51,5.44,5.51c3.08,0,5.42-2.43,5.42-5.51
		C371.49,290.37,369.15,287.92,366.07,287.92 M366.07,301.32c-4.41,0-8.1-3.31-8.1-7.86c0-4.57,3.69-7.91,8.1-7.91
		c4.38,0,8.09,3.34,8.09,7.91C374.16,298.03,370.45,301.32,366.07,301.32"/>
	<path class="st0" d="M392.11,286.05c0-0.16,0.11-0.29,0.27-0.29h1.84c0.16,0,0.29,0.13,0.29,0.29v14.77c0,0.16-0.13,0.27-0.29,0.27
		h-1.75c-0.23,0-0.34-0.05-0.49-0.29l-8.53-10.88v10.9c0,0.16-0.11,0.27-0.27,0.27h-1.87c-0.13,0-0.27-0.11-0.27-0.27v-14.77
		c0-0.16,0.13-0.29,0.27-0.29h1.76c0.23,0,0.33,0.07,0.51,0.29l8.53,10.9V286.05z"/>
</g>
<g>
	<path class="st0" d="M148.03,251.03v-20.71c0-1.15,0.56-1.74,1.62-1.74h0.52c1.11,0,1.66,0.59,1.66,1.74v20.71
		c0,1.15-0.55,1.73-1.66,1.73h-0.52C148.59,252.76,148.03,252.17,148.03,251.03"/>
	<path class="st0" d="M166.47,251.03v-20.3c0-1.29,0.63-2.14,1.8-2.14h0.63c1.14,0,1.58,0.48,2.28,1.44l11.8,16.76v-16.46
		c0-1.15,0.48-1.74,1.59-1.74h0.44c1.03,0,1.55,0.59,1.55,1.74v20.3c0,1.33-0.67,2.14-1.77,2.14h-0.29c-1.15,0-1.44-0.33-2.02-1.15
		l-12.43-17.6v17.02c0,1.15-0.51,1.73-1.63,1.73h-0.41C166.94,252.76,166.47,252.17,166.47,251.03"/>
	<path class="st0" d="M200.84,251.03v-20.3c0-1.29,0.63-2.14,1.8-2.14h0.62c1.15,0,1.59,0.48,2.29,1.44l11.8,16.76v-16.46
		c0-1.15,0.47-1.74,1.58-1.74h0.44c1.03,0,1.55,0.59,1.55,1.74v20.3c0,1.33-0.67,2.14-1.77,2.14h-0.29c-1.14,0-1.43-0.33-2.03-1.15
		l-12.42-17.6v17.02c0,1.15-0.52,1.73-1.62,1.73h-0.41C201.31,252.76,200.84,252.17,200.84,251.03"/>
	<path class="st0" d="M255.87,238.07c3.03-0.85,4.39-2.06,4.39-4.02c0-1.74-1.29-3.07-3.1-3.07c-2.1,0-3.21,1.45-3.21,3.22
		C253.95,235.74,254.66,236.89,255.87,238.07 M261.55,247.26l-7.15-6.47c-2.51,0.81-4.2,2.26-4.2,4.81c0,2.91,2.2,4.61,5.34,4.61
		C257.94,250.21,260,249.03,261.55,247.26 M246.66,245.9c0-3.51,2.28-5.72,5.97-6.87c-1.19-1.29-2.1-2.88-2.1-4.84
		c0-3.32,2.69-5.95,6.67-5.95c3.61,0,6.19,2.36,6.19,5.61c0,2.81-1.98,4.77-5.56,5.84l5.61,5.02c0.8-1.43,1.33-3.02,1.8-4.84
		c0.45-1.55,1.11-2.06,2.1-2.06c1.11,0,1.66,0.89,1.62,1.03c-0.66,2.99-1.8,5.68-3.32,7.9l5.02,4.51c0.11,0.07-0.41,1.55-2.02,1.55
		c-0.63,0-1.47-0.15-2.4-1.11l-2.55-2.44c-2.2,2.44-5.04,3.84-8.4,3.84C250.12,253.09,246.66,250.51,246.66,245.9"/>
	<path class="st0" d="M296.36,248.34c0-1.26,1.62-2.18,1.73-2.03c1.37,1.99,3.91,3.66,7.19,3.66c3.32,0,5.2-1.37,5.2-3.74
		c0-2.69-2.8-3.31-5.97-4.06c-3.69-0.85-7.52-2.14-7.52-6.99c0-4.05,3.5-6.93,8.59-6.93c5.31,0,8.19,2.51,8.19,4.25
		c0,1.36-1.69,2.2-1.77,2.1c-1.26-1.81-3.62-3.21-6.38-3.21c-2.98,0-4.94,1.45-4.94,3.66c0,2.62,2.32,3.02,5.64,3.8
		c4.06,0.93,7.97,2.5,7.97,7.13c0,4.39-3.39,7.12-8.97,7.12C299.57,253.09,296.36,250.29,296.36,248.34"/>
	<path class="st0" d="M327.08,242.91v-12.59c0-1.15,0.59-1.73,1.62-1.73h0.51c1.11,0,1.66,0.59,1.66,1.73v12.48
		c0,4.54,1.99,6.91,5.93,6.91c4.02,0,5.93-2.29,5.93-6.94v-12.44c0-1.18,0.56-1.73,1.62-1.73h0.59c1.07,0,1.59,0.55,1.59,1.73v12.52
		c0,6.64-3.43,10.22-9.77,10.22C330.43,253.06,327.08,249.55,327.08,242.91"/>
	<path class="st0" d="M360.88,251.03v-20.71c0-1.15,0.55-1.74,1.62-1.74h0.51c1.11,0,1.66,0.59,1.66,1.74v20.71
		c0,1.15-0.55,1.73-1.66,1.73h-0.51C361.44,252.76,360.88,252.17,360.88,251.03"/>
	<path class="st0" d="M377.51,230.51v-0.19c0-1.04,0.63-1.59,1.77-1.59h16.88c1.14,0,1.73,0.55,1.73,1.59v0.19
		c0,1.03-0.59,1.62-1.73,1.62h-6.53v18.9c0,1.15-0.59,1.73-1.7,1.73h-0.51c-1.07,0-1.62-0.59-1.62-1.73v-18.9h-6.52
		C378.14,232.12,377.51,231.54,377.51,230.51"/>
	<path class="st0" d="M410.4,250.51v-19.64c0-1.29,0.82-2.14,2.03-2.14h13.83c1.18,0,1.77,0.59,1.77,1.59v0.22
		c0,1.03-0.59,1.59-1.77,1.59H414.2v6.68h9.32c1.22,0,1.77,0.52,1.77,1.52v0.11c0,1.04-0.59,1.59-1.77,1.59h-9.32v7.24h12.27
		c1.18,0,1.73,0.51,1.73,1.51v0.18c0,1.08-0.55,1.67-1.73,1.67h-14.05C411.22,252.62,410.4,251.8,410.4,250.51"/>
	<path class="st0" d="M439.9,248.34c0-1.26,1.62-2.18,1.74-2.03c1.36,1.99,3.9,3.66,7.19,3.66c3.32,0,5.2-1.37,5.2-3.74
		c0-2.69-2.8-3.31-5.97-4.06c-3.69-0.85-7.53-2.14-7.53-6.99c0-4.05,3.51-6.93,8.6-6.93c5.3,0,8.17,2.51,8.17,4.25
		c0,1.36-1.69,2.2-1.77,2.1c-1.25-1.81-3.61-3.21-6.38-3.21c-2.98,0-4.94,1.45-4.94,3.66c0,2.62,2.32,3.02,5.63,3.8
		c4.06,0.93,7.97,2.5,7.97,7.13c0,4.39-3.39,7.12-8.96,7.12C443.1,253.09,439.9,250.29,439.9,248.34"/>
</g>
</svg>
