<?xml version="1.0" encoding="UTF-8"?>
<svg width="69px" height="22px" viewBox="0 0 69 22" version="1.1" xmlns="http://www.w3.org/2000/svg" xmlns:xlink="http://www.w3.org/1999/xlink">
    <!-- Generator: Sketch 55.1 (78136) - https://sketchapp.com -->
    <title>Radisson Rewards</title>
    <desc>Created with Sketch.</desc>
    <g id="Radisson-Rewards" stroke="none" stroke-width="1" fill="none" fill-rule="evenodd">
        <g id="Group-2" fill="#474A4B" fill-rule="nonzero">
            <path d="M66.298,21.066 C67.637,21.066 68.576,20.356 68.576,19.162 L68.576,19.144 C68.576,18.087 67.884,17.604 66.535,17.276 C65.305,16.985 65.014,16.766 65.014,16.274 L65.014,16.256 C65.014,15.836 65.396,15.499 66.052,15.499 C66.636,15.499 67.209,15.727 67.783,16.156 L68.385,15.308 C67.738,14.789 67,14.506 66.071,14.506 C64.804,14.506 63.893,15.263 63.893,16.356 L63.893,16.374 C63.893,17.549 64.658,17.95 66.016,18.279 C67.2,18.552 67.455,18.798 67.455,19.253 L67.455,19.272 C67.455,19.745 67.018,20.073 66.325,20.073 C65.542,20.073 64.923,19.773 64.312,19.244 L63.638,20.046 C64.403,20.729 65.323,21.066 66.298,21.066" id="Fill-2"></path>
            <path d="M58.09,17.805 C58.09,19.053 57.215,19.954 55.875,19.954 L54.618,19.954 L54.618,15.618 L55.875,15.618 C57.215,15.618 58.09,16.538 58.09,17.786 L58.09,17.805 Z M55.875,14.598 L53.498,14.598 L53.498,20.975 L55.875,20.975 C57.88,20.975 59.264,19.581 59.264,17.786 L59.264,17.768 C59.264,15.974 57.88,14.598 55.875,14.598 L55.875,14.598 Z" id="Fill-3"></path>
            <path d="M44.496,17.759 L44.496,15.618 L46.127,15.618 C46.956,15.618 47.448,15.991 47.448,16.675 L47.448,16.693 C47.448,17.34 46.938,17.759 46.136,17.759 L44.496,17.759 Z M47.075,18.561 C47.959,18.306 48.587,17.677 48.587,16.629 L48.587,16.612 C48.587,16.055 48.396,15.581 48.058,15.236 C47.649,14.834 47.02,14.598 46.218,14.598 L43.376,14.598 L43.376,20.975 L44.496,20.975 L44.496,18.752 L45.9,18.752 L47.467,20.975 L48.797,20.975 L47.075,18.561 L47.075,18.561 Z" id="Fill-4"></path>
            <path d="M34.311,18.443 L35.404,15.891 L36.506,18.443 L34.311,18.443 Z M35.941,14.552 L34.903,14.552 L32.097,20.975 L33.245,20.975 L33.901,19.436 L36.916,19.436 L37.563,20.975 L38.747,20.975 L35.941,14.552 L35.941,14.552 Z" id="Fill-5"></path>
            <polyline id="Fill-6" points="21.483 21.021 22.458 21.021 24.025 16.438 25.592 21.021 26.567 21.021 28.78 14.598 27.605 14.598 26.084 19.326 24.517 14.579 23.569 14.579 22.002 19.326 20.481 14.598 19.269 14.598 21.483 21.021"></polyline>
            <polyline id="Fill-7" points="10.122 20.975 14.896 20.975 14.896 19.973 11.242 19.973 11.242 18.27 14.44 18.27 14.44 17.258 11.242 17.258 11.242 15.6 14.85 15.6 14.85 14.598 10.122 14.598 10.122 20.975"></polyline>
            <path d="M1.12,17.759 L1.12,15.618 L2.752,15.618 C3.58,15.618 4.073,15.991 4.073,16.675 L4.073,16.693 C4.073,17.34 3.562,17.759 2.76,17.759 L1.12,17.759 Z M3.699,18.561 C4.583,18.306 5.211,17.677 5.211,16.629 L5.211,16.612 C5.211,16.055 5.02,15.581 4.683,15.236 C4.273,14.834 3.644,14.598 2.842,14.598 L-3.55271368e-15,14.598 L-3.55271368e-15,20.975 L1.12,20.975 L1.12,18.752 L2.524,18.752 L4.091,20.975 L5.421,20.975 L3.699,18.561 L3.699,18.561 Z" id="Fill-8"></path>
            <polygon id="Fill-9" points="0.002 12.454 68.346 12.454 68.346 12.191 0.002 12.191"></polygon>
            <path d="M11.878,5.997 L13.306,2.507 L14.745,5.997 L11.878,5.997 Z M14.153,0.097 L12.511,0.097 L8.363,10.047 L10.25,10.047 L11.2,7.712 L15.424,7.712 L16.36,10.047 L18.301,10.047 L14.153,0.097 L14.153,0.097 Z" id="Fill-10"></path>
            <path d="M22.84,8.291 L21.124,8.291 L21.124,1.922 L22.84,1.922 C24.665,1.922 25.94,3.238 25.94,5.12 C25.94,7.017 24.694,8.291 22.84,8.291 Z M22.84,0.165 L19.294,0.165 L19.294,10.048 L22.84,10.048 C25.742,10.048 27.849,7.964 27.849,5.093 C27.849,2.238 25.742,0.165 22.84,0.165 L22.84,0.165 Z" id="Fill-11"></path>
            <path d="M53.75,8.444 C52.02,8.444 50.716,7.003 50.716,5.093 C50.716,3.198 52.009,1.77 53.723,1.77 C55.453,1.77 56.758,3.21 56.758,5.121 C56.758,7.015 55.464,8.444 53.75,8.444 Z M53.75,-3.55271368e-15 C50.931,-3.55271368e-15 48.806,2.201 48.806,5.121 C48.806,8.024 50.92,10.213 53.723,10.213 C56.542,10.213 58.667,8.012 58.667,5.093 C58.667,2.19 56.553,-3.55271368e-15 53.75,-3.55271368e-15 L53.75,-3.55271368e-15 Z" id="Fill-12"></path>
            <path d="M4.101,4.961 L1.832,4.961 L1.832,1.922 L4.088,1.922 C5.254,1.922 5.896,2.459 5.896,3.435 C5.896,4.376 5.208,4.961 4.101,4.961 Z M5.612,6.339 C6.993,5.889 7.752,4.828 7.752,3.338 C7.752,1.381 6.399,0.165 4.219,0.165 L0.001,0.165 L0.001,10.048 L1.832,10.048 L1.832,6.676 L3.702,6.676 L5.971,10.048 L8.135,10.048 L5.612,6.339 L5.612,6.339 Z" id="Fill-13"></path>
            <polygon id="Fill-14" points="29.368 10.048 31.198 10.048 31.198 0.166 29.368 0.166"></polygon>
            <path d="M36.817,4.232 C35.025,3.783 34.706,3.467 34.706,2.799 C34.706,2.167 35.269,1.743 36.105,1.743 C36.91,1.743 37.709,2.061 38.547,2.715 L38.635,2.784 L39.62,1.328 L39.548,1.269 C38.556,0.434 37.438,0.028 36.132,0.028 C34.215,0.028 32.876,1.23 32.876,2.95 C32.876,4.795 34.032,5.448 36.028,5.954 C37.743,6.369 38.032,6.719 38.032,7.345 C38.032,8.039 37.446,8.471 36.501,8.471 C35.458,8.471 34.608,8.103 33.657,7.24 L33.575,7.166 L32.469,8.544 L32.54,8.611 C33.642,9.641 34.998,10.186 36.461,10.186 C38.528,10.186 39.862,9.006 39.862,7.18 C39.862,5.637 38.98,4.783 36.817,4.232" id="Fill-15"></path>
            <path d="M44.795,4.232 C43.004,3.783 42.685,3.467 42.685,2.799 C42.685,2.167 43.247,1.743 44.083,1.743 C44.888,1.743 45.687,2.061 46.525,2.715 L46.613,2.784 L47.598,1.328 L47.526,1.269 C46.534,0.434 45.417,0.028 44.11,0.028 C42.193,0.028 40.854,1.23 40.854,2.95 C40.854,4.795 42.01,5.449 44.007,5.954 C45.721,6.369 46.01,6.719 46.01,7.345 C46.01,8.039 45.424,8.471 44.479,8.471 C43.437,8.471 42.586,8.103 41.635,7.24 L41.554,7.166 L40.448,8.544 L40.518,8.611 C41.62,9.641 42.976,10.186 44.44,10.186 C46.506,10.186 47.84,9.006 47.84,7.18 C47.84,5.637 46.958,4.783 44.795,4.232" id="Fill-16"></path>
            <polyline id="Fill-17" points="66.542 0.166 66.542 6.642 61.785 0.208 61.755 0.166 60.094 0.166 60.094 10.047 61.898 10.047 61.898 3.378 66.8 10.005 66.831 10.047 68.346 10.047 68.346 0.166 66.542 0.166"></polyline>
        </g>
    </g>
</svg>