<svg width="182.3" height="85.8" xmlns="http://www.w3.org/2000/svg">
 <style type="text/css">.st0{fill:#53565A;}
	.st1{fill:#F8B03D;}</style>

 <g>
  <title>Layer 1</title>
  <g stroke="null" id="svg_1">
   <g stroke="null" id="svg_2">
    <path stroke="null" id="svg_3" d="m0.36153,68.59133l0,-0.44468l0.74113,0c1.48226,0 1.77871,-0.44468 1.77871,-5.18791l0,-11.70986c0,-4.59501 -0.29645,-5.03969 -1.77871,-5.18791l-0.74113,0l0,-0.44468l10.07937,0l0,0.44468l-0.74113,0c-1.48226,0 -1.92694,0.44468 -1.92694,5.18791l0,11.70986c0,4.59501 0.29645,5.03969 1.92694,5.18791l0.74113,0l0,0.44468l-10.07937,0z" class="st0"/>
   </g>
   <g stroke="null" id="svg_4">
    <path stroke="null" id="svg_5" d="m23.33657,68.59133l0,-0.44468l0.74113,0c1.03758,0 1.33403,-0.14823 1.33403,-4.59501l0,-6.22549c0,-2.51984 -1.03758,-4.0021 -3.11275,-4.0021c-1.63049,0 -2.8163,0.88936 -3.55743,2.37162l0,8.00421c0,4.44678 0.29645,4.44678 1.48226,4.59501l0.74113,0l0,0.44468l-8.74534,0l0,-0.44468l0.74113,0c1.18581,0 1.33403,-0.14823 1.33403,-4.59501l0,-5.78082c0,-4.44678 -0.29645,-4.44678 -1.33403,-4.59501l-0.74113,0l0,-0.44468l6.52195,0l0,2.22339c0.88936,-1.33403 2.07516,-2.51984 5.03969,-2.51984c3.4092,0 6.22549,1.63049 6.22549,5.78082l0,5.48436c0,4.44678 0.29645,4.44678 1.33403,4.59501l0.74113,0l0,0.44468l-8.74534,0l0,-0.29645z" class="st0"/>
   </g>
   <g stroke="null" id="svg_6">
    <path stroke="null" id="svg_7" d="m42.16128,68.59133c-4.59501,0 -8.59711,-2.37162 -8.59711,-8.00421c0,-4.89146 3.4092,-8.15243 8.59711,-8.15243c0.88936,0 1.92694,0.14823 2.8163,0.44468l0,-2.22339c0,-4.44678 -0.29645,-4.44678 -1.33403,-4.59501l-0.74113,0l0,-0.44468l6.67017,0l0,17.93535c0,4.44678 0.29645,4.44678 1.33403,4.59501l0.74113,0l0,0.44468l-9.48647,0zm2.8163,-15.26728c-0.88936,-0.29645 -1.63049,-0.44468 -2.37162,-0.44468c-2.96452,0 -4.15033,2.37162 -4.15033,7.70776c0,4.29856 1.18581,7.55953 4.29856,7.55953l2.22339,0l0,-14.82261z" class="st0"/>
   </g>
   <g stroke="null" id="svg_8">
    <path stroke="null" id="svg_9" d="m53.27824,68.59133l0,-0.44468l0.74113,0c1.18581,0 1.33403,-0.14823 1.33403,-4.59501l0,-5.63259c0,-4.44678 -0.29645,-4.44678 -1.33403,-4.59501l-0.74113,0l0,-0.44468l6.52195,0l0,10.8205c0,4.44678 0.29645,4.44678 1.48226,4.59501l0.74113,0l0,0.44468l-8.74534,0l0,-0.14823zm4.29856,-18.67648c-1.48226,0 -2.51984,-0.88936 -2.51984,-2.22339c0,-1.33403 1.03758,-2.37162 2.51984,-2.37162c1.48226,0 2.51984,0.88936 2.51984,2.22339c0,1.48226 -1.03758,2.37162 -2.51984,2.37162" class="st0"/>
   </g>
   <g stroke="null" id="svg_10">
    <path stroke="null" id="svg_11" d="m70.02778,68.73956l-4.89146,-11.70986c-1.18581,-2.96452 -1.63049,-3.55743 -2.66807,-3.70565l-0.29645,0l0,-0.44468l8.44889,0l0,0.44468l-0.5929,0c-1.18581,0 -1.18581,0.88936 -0.14823,3.70565l3.11275,7.70776l2.07516,-5.48436c1.03758,-2.51984 0.44468,-5.78082 -1.03758,-5.78082l-0.5929,0l0,-0.44468l5.78082,0l0,0.44468l-0.29645,0c-0.88936,0.14823 -1.48226,1.03758 -3.4092,5.78082l-3.85388,9.63469l-1.63049,0l0,-0.14823z" class="st0"/>
   </g>
   <g stroke="null" id="svg_12">
    <path stroke="null" id="svg_13" d="m79.8107,68.59133l0,-0.44468l0.74113,0c1.18581,0 1.33403,-0.14823 1.33403,-4.59501l0,-5.63259c0,-4.44678 -0.29645,-4.44678 -1.33403,-4.59501l-0.74113,0l0,-0.44468l6.67017,0l0,10.8205c0,4.44678 0.29645,4.44678 1.48226,4.59501l0.74113,0l0,0.44468l-8.89356,0l0,-0.14823zm4.29856,-18.67648c-1.48226,0 -2.51984,-0.88936 -2.51984,-2.22339c0,-1.33403 1.03758,-2.37162 2.51984,-2.37162c1.48226,0 2.51984,0.88936 2.51984,2.22339c0,1.48226 -1.03758,2.37162 -2.51984,2.37162" class="st0"/>
   </g>
   <g stroke="null" id="svg_14">
    <path stroke="null" id="svg_15" d="m98.93186,68.59133c-4.59501,0 -8.59711,-2.37162 -8.59711,-8.00421c0,-4.89146 3.4092,-8.15243 8.59711,-8.15243c0.88936,0 1.92694,0.14823 2.8163,0.44468l0,-2.22339c0,-4.44678 -0.29645,-4.44678 -1.33403,-4.59501l-0.74113,0l0,-0.44468l6.67017,0l0,17.93535c0,4.44678 0.29645,4.44678 1.33403,4.59501l0.74113,0l0,0.44468l-9.48647,0zm2.8163,-15.26728c-0.88936,-0.29645 -1.63049,-0.44468 -2.37162,-0.44468c-2.96452,0 -4.15033,2.37162 -4.15033,7.70776c0,4.29856 1.18581,7.55953 4.29856,7.55953l2.22339,0l0,-14.82261z" class="st0"/>
   </g>
   <g stroke="null" id="svg_16">
    <path stroke="null" id="svg_17" d="m122.35158,68.59133l0,-2.22339c-0.74113,1.33403 -2.07516,2.51984 -4.59501,2.51984c-3.11275,0 -6.07727,-1.63049 -6.07727,-5.78082l0,-5.18791c0,-4.44678 -0.29645,-4.44678 -1.33403,-4.59501l-0.74113,0l0,-0.44468l6.52195,0l0,11.26518c0,2.66807 1.03758,4.0021 2.8163,4.0021c1.63049,0 2.51984,-0.88936 3.26097,-2.37162l0,-7.85598c0,-4.44678 -0.29645,-4.44678 -1.48226,-4.59501l-0.74113,0l0,-0.44468l6.67017,0l0,10.8205c0,4.44678 0.29645,4.44678 1.33403,4.59501l0.74113,0l0,0.44468l-6.37372,0l0,-0.14823z" class="st0"/>
   </g>
   <g stroke="null" id="svg_18">
    <path stroke="null" id="svg_19" d="m142.06565,68.59133l0,-2.22339c-0.74113,1.33403 -2.07516,2.51984 -5.03969,2.51984c-3.26097,0 -5.78082,-1.63049 -5.78082,-4.44678c0,-2.96452 2.37162,-4.44678 6.37372,-4.44678c1.92694,0 3.11275,0.29645 4.29856,0.88936l0,-4.29856c0,-2.37162 -1.03758,-3.70565 -3.26097,-3.70565c-1.48226,0 -2.07516,0.44468 -2.07516,0.88936c0,0.5929 0.74113,1.03758 0.74113,2.22339c0,1.18581 -0.88936,2.07516 -2.37162,2.07516c-1.63049,0 -2.51984,-0.88936 -2.51984,-2.07516c0,-2.07516 2.22339,-3.55743 6.37372,-3.55743c3.85388,0 7.70776,1.63049 7.70776,5.63259l0,5.63259c0,4.44678 0.29645,4.44678 1.33403,4.59501l0.74113,0l0,0.44468l-6.52195,0l0,-0.14823zm-3.4092,-0.44468c1.33403,0 2.66807,-1.03758 3.26097,-2.37162l0,-4.44678c-0.88936,-0.44468 -1.77871,-0.74113 -2.96452,-0.74113c-1.63049,0 -2.96452,0.88936 -2.96452,4.0021c0,2.66807 1.18581,3.55743 2.66807,3.55743" class="st0"/>
   </g>
   <g stroke="null" id="svg_20">
    <path stroke="null" id="svg_21" d="m149.7734,68.59133l0,-0.44468l0.74113,0c1.18581,0 1.33403,-0.14823 1.33403,-4.59501l0,-13.04389c0,-4.44678 -0.29645,-4.44678 -1.33403,-4.59501l-0.74113,0l0,-0.44468l6.67017,0l0,17.93535c0,4.44678 0.29645,4.44678 1.48226,4.59501l0.74113,0l0,0.44468l-8.89356,0l0,0.14823z" class="st0"/>
   </g>
   <g stroke="null" id="svg_22">
    <path stroke="null" id="svg_23" d="m167.26408,69.03601c-1.03758,0 -1.92694,-0.14823 -2.96452,-0.74113c-0.44468,-0.14823 -0.88936,-0.29645 -1.33403,-0.29645c-0.5929,0 -1.18581,0.29645 -1.77871,1.03758l-0.44468,0l0,-5.63259l0.44468,0l0.29645,0.88936c0.74113,2.07516 2.51984,4.44678 5.78082,4.44678c1.77871,0 2.96452,-0.74113 2.96452,-2.37162c0,-4.0021 -8.74534,-2.96452 -8.74534,-9.04179c0,-2.96452 2.51984,-4.74323 5.48436,-4.74323c0.88936,0 1.77871,0.29645 2.8163,0.74113c0.29645,0.14823 0.5929,0.29645 0.88936,0.29645c0.44468,0 1.03758,-0.29645 1.48226,-1.03758l0.29645,0l0,5.03969l-0.44468,0l-0.29645,-0.88936c-0.74113,-2.07516 -2.51984,-3.85388 -4.89146,-3.85388c-1.48226,0 -2.37162,0.74113 -2.37162,2.07516c0,4.0021 8.74534,2.96452 8.74534,9.19002c0.29645,3.11275 -2.51984,4.89146 -5.92904,4.89146" class="st0"/>
   </g>
   <g stroke="null" id="svg_24">
    <path stroke="null" id="svg_25" d="m179.41861,68.59133c-1.48226,0 -2.51984,-1.03758 -2.51984,-2.66807c0,-1.48226 1.03758,-2.66807 2.51984,-2.66807c1.48226,0 2.51984,1.03758 2.51984,2.51984c0,1.77871 -1.03758,2.8163 -2.51984,2.8163" class="st1"/>
   </g>
   <path stroke="null" id="svg_26" d="m30.3032,27.53271c2.96452,-0.5929 4.74323,-2.51984 4.74323,-5.18791c0,-1.33403 -0.44468,-2.66807 -1.33403,-3.55743c-1.18581,-1.18581 -2.96452,-1.77871 -5.03969,-1.77871l-7.55953,0l0,17.93535l1.92694,0l0,-7.11485l5.03969,0l5.33614,6.96662l0.14823,0.14823l2.51984,0l-0.44468,-0.5929l-5.33614,-6.8184zm-7.4113,-1.48226l0,-6.96662l5.48436,0c2.8163,0 4.59501,1.33403 4.59501,3.4092c0,2.22339 -1.77871,3.55743 -4.59501,3.55743l-5.48436,0zm25.64311,-8.89356l-0.14823,-0.14823l-1.63049,0l-0.14823,0.14823l-8.00421,17.34245l-0.29645,0.44468l2.22339,0l0.14823,-0.14823l2.07516,-4.59501l9.63469,0l2.07516,4.59501l0.14823,0.14823l2.22339,0l-0.29645,-0.44468l-8.00421,-17.34245zm-4.89146,11.11695l4.0021,-8.74534l4.0021,8.74534l-8.00421,0zm21.78923,-11.11695l-6.07727,0l0,17.93535l6.07727,0c5.48436,0 9.48647,-3.70565 9.48647,-8.89356c0,-5.33614 -4.0021,-9.04179 -9.48647,-9.04179zm0,15.86019l-4.0021,0l0,-14.08148l4.0021,0c4.29856,0 7.4113,2.96452 7.4113,6.96662c0,4.29856 -2.96452,7.11485 -7.4113,7.11485zm14.08148,1.92694l1.92694,0l0,-17.78713l-1.92694,0l0,17.78713zm13.93325,-9.93115c-4.0021,-0.74113 -4.74323,-1.77871 -4.74323,-3.4092c0,-1.77871 1.63049,-2.96452 3.85388,-2.96452c1.92694,0 3.4092,0.5929 4.89146,1.77871l0.29645,0.29645l0.29645,-0.29645l0.74113,-1.03758l0.29645,-0.29645l-0.29645,-0.29645c-1.92694,-1.48226 -3.70565,-2.22339 -6.07727,-2.22339c-3.4092,0 -5.92904,2.07516 -5.92904,4.89146c0,2.8163 1.77871,4.29856 6.07727,5.18791c3.85388,0.74113 4.59501,1.77871 4.59501,3.26097c0,1.77871 -1.63049,3.11275 -4.0021,3.11275c-2.37162,0 -4.0021,-0.74113 -5.92904,-2.51984l-0.29645,-0.29645l-0.29645,0.29645l-0.88936,0.88936l-0.29645,0.29645l0.29645,0.29645c2.22339,1.92694 4.44678,2.8163 7.11485,2.8163c3.55743,0 6.07727,-2.07516 6.07727,-5.03969c0.14823,-2.37162 -1.63049,-3.85388 -5.78082,-4.74323zm15.71196,0c-4.0021,-0.74113 -4.74323,-1.77871 -4.74323,-3.4092c0,-1.77871 1.63049,-2.96452 3.85388,-2.96452c1.92694,0 3.4092,0.5929 4.89146,1.77871l0.29645,0.29645l0.29645,-0.29645l0.74113,-1.03758l0.29645,-0.29645l-0.29645,-0.29645c-1.92694,-1.48226 -3.70565,-2.22339 -6.07727,-2.22339c-3.4092,0 -5.92904,2.07516 -5.92904,4.89146c0,2.8163 1.77871,4.29856 6.07727,5.18791c3.85388,0.74113 4.59501,1.77871 4.59501,3.26097c0,1.77871 -1.63049,3.11275 -4.0021,3.11275c-2.37162,0 -4.0021,-0.74113 -5.92904,-2.51984l-0.29645,-0.29645l-0.14823,0.74113l-0.88936,0.88936l-0.29645,0.29645l0.29645,0.29645c2.22339,1.92694 4.44678,2.8163 7.11485,2.8163c3.55743,0 6.07727,-2.07516 6.07727,-5.03969c0,-2.8163 -1.77871,-4.29856 -5.92904,-5.18791zm18.38003,-8.15243c-4.44678,0 -9.04179,3.4092 -9.04179,9.19002c0,5.33614 3.85388,9.19002 8.89356,9.19002c4.44678,0 9.04179,-3.4092 9.04179,-9.19002c0.14823,-5.33614 -3.70565,-9.19002 -8.89356,-9.19002zm0,16.60132c-3.85388,0 -6.96662,-3.26097 -6.96662,-7.4113c0,-4.15033 2.96452,-7.4113 6.96662,-7.4113c3.85388,0 6.96662,3.26097 6.96662,7.4113c0,4.15033 -2.96452,7.4113 -6.96662,7.4113zm26.53247,-16.30487l0,14.2297l-11.11695,-14.08148l-0.14823,-0.14823l-1.77871,0l0,17.93535l1.92694,0l0,-14.52615l11.41341,14.37793l0.14823,0.14823l1.48226,0l0,-17.93535l-1.92694,0z" class="st0"/>
  </g>
 </g>
</svg>